<?xml version="1.0" encoding="UTF-8"?>
<svg width="396px" height="73px" viewBox="0 0 396 73" version="1.1" xmlns="http://www.w3.org/2000/svg" xmlns:xlink="http://www.w3.org/1999/xlink">
    <!-- Generator: Sketch 52.4 (67378) - http://www.bohemiancoding.com/sketch -->
    <title>Group 2</title>
    <desc>Created with Sketch.</desc>
    <defs>
        <polygon id="path-1" points="0.0241696113 0.0574497041 113.761929 0.0574497041 113.761929 72.9740828 0.0241696113 72.9740828"></polygon>
    </defs>
    <g id="Design" stroke="none" stroke-width="1" fill="none" fill-rule="evenodd">
        <g id="Tools---ReserveNow" transform="translate(-147.000000, -143.000000)">
            <g id="Group-2" transform="translate(147.000000, 143.000000)">
                <g id="Group-8">
                    <mask id="mask-2" fill="white">
                        <use xlink:href="#path-1"></use>
                    </mask>
                    <g id="Clip-2"></g>
                    <polyline id="Fill-1" fill="#111214" mask="url(#mask-2)" points="105.396021 0.0682485207 79.3496396 62.7696331 76.8287491 56.821645 99.626735 0.0682485207 91.695477 0.0682485207 68.6642544 55.4825917 75.7765654 72.9978402 83.4882827 72.999568 113.761929 0.0682485207 105.396021 0.0682485207"></polyline>
                    <polyline id="Fill-3" fill="#111214" mask="url(#mask-2)" points="53.5828198 0.0712721893 31.4720565 0.0747278107 0 72.945142 21.9987774 72.9209527 53.5828198 0.0712721893"></polyline>
                    <polyline id="Fill-4" fill="#111214" mask="url(#mask-2)" points="53.5812085 0.0669526627 31.4946148 0.0574497041 46.9708198 38.9871834 68.925689 38.9871834 53.5812085 0.0669526627"></polyline>
                    <polyline id="Fill-5" fill="#111214" mask="url(#mask-2)" points="50.9527633 44.3986864 33.8410813 44.3852959 26.8826502 59.7204793 55.9784311 59.7204793 50.9527633 44.3986864"></polyline>
                    <polyline id="Fill-6" fill="#111214" mask="url(#mask-2)" points="83.438735 72.999568 71.0360989 44.3852959 64.2698163 44.3852959 75.7765654 72.9978402 83.438735 72.999568"></polyline>
                    <polyline id="Fill-7" fill="#111214" mask="url(#mask-2)" points="49.089689 44.3852959 60.4461837 72.9952485 69.4219717 72.9969763 58.27253 44.3852959 49.089689 44.3852959"></polyline>
                </g>
                <path d="M134.929186,40.4598994 L131.427705,31.3102781 L127.843048,40.4598994 L134.929186,40.4598994 Z M136.783998,47.8691834 L125.864072,47.8691834 L124.369293,52.2880592 L115,52.2880592 L127.288935,21 L133.39101,21 C135.057367,21 136.557772,22.0850651 137.185419,23.7446272 L147.980378,52.2880592 L138.236988,52.2880592 L136.783998,47.8691834 Z" id="Fill-9" fill="#111214"></path>
                <path d="M161.604903,43.3591657 C163.971637,43.3591657 165.798724,41.9458166 165.798724,38.821071 L165.801938,21 L174.922101,21 L174.918887,38.821071 C174.918887,47.1232012 169.992142,51.9735976 161.563917,51.9735976 C153.093903,51.9735976 148,47.1232012 148,38.821071 L148.003215,21 L157.124583,21 L157.121369,38.821071 C157.121369,41.9013254 159.197183,43.3591657 161.604903,43.3591657" id="Fill-10" fill="#111214"></path>
                <path d="M203.807044,25.3121834 L203.7753,28.701716 L195.4407,28.6853018 L195.454362,51.7593491 L186.316117,51.8586982 L186.266291,28.8122959 L178,28.7129467 L178.022502,21 L199.890883,21.0686805 C202.152741,21.0686805 203.807044,22.8807219 203.807044,25.3121834" id="Fill-11" fill="#111214"></path>
                <path d="M245.783974,21 L251.758671,41.3406509 L257.7844,21 L267.112305,21 L255.985039,51.9805089 L249.870909,51.9805089 C248.169593,51.9805089 246.599271,50.966716 245.995734,49.2566154 L236,21 L245.783974,21" id="Fill-12" fill="#111214"></path>
                <path d="M293.598226,21 L293.630372,28.6770947 L279.153514,28.6770947 L279.153514,33.0657337 L292.26056,33.0657337 L292.26056,39.8206095 L279.153514,39.8206095 L279.153514,44.2541716 L294.004469,44.2541716 L294.022149,51.9822367 L274.145602,51.9822367 C271.883342,51.9822367 270.032146,50.1382308 270.032146,47.7067692 L270,21 L293.598226,21" id="Fill-13" fill="#111214"></path>
                <path d="M306.681775,36.0803314 L312.148167,36.0803314 C314.223981,36.0803314 315.427841,35.2470947 315.427841,32.8367988 C315.427841,30.5159172 314.223981,29.1768639 312.148167,29.1768639 L306.681775,29.1768639 L306.681775,36.0803314 Z M316.268454,51.9399053 L312.624728,43.0792604 C312.453954,42.6002249 312.026013,42.2848994 311.549853,42.2848994 L306.681775,42.2848994 L306.609447,51.9399053 L298,51.9399053 L298.03978,21 L312.115619,21 C320.003795,21 324.562068,24.832716 324.562068,31.9741893 C324.562068,36.5265385 322.943126,39.9186627 319.953567,41.8827515 L325.611628,51.9399053 L316.268454,51.9399053 Z" id="Fill-14" fill="#111214"></path>
                <path d="M328.017278,21 L328,47.6976982 C328,49.9740888 329.722613,51.9347219 331.839413,51.9347219 L337.120163,51.9347219 L337.137843,21 L328.017278,21" id="Fill-15" fill="#111214"></path>
                <path d="M363.404548,25.1778462 L363.404548,28.6308757 L349.107707,28.6308757 L349.107707,34.5818876 L362.532593,34.5818876 L362.532593,41.887071 L349.107707,41.887071 L349.129405,51.9165799 L340.008036,51.9165799 L340,21 L359.322434,21 C361.584292,21 363.404548,22.7463846 363.404548,25.1778462" id="Fill-16" fill="#111214"></path>
                <path d="M384.865698,42.3600592 L384.865698,48.7875148 C384.865698,50.6116509 383.49468,51.9390414 381.798186,51.9390414 L376.773798,51.9390414 L376.76978,42.5833787 L365,21 L374.591099,21 L380.56218,32.853213 L386.09206,21 L395.683561,21 L384.865698,42.3600592" id="Fill-17" fill="#111214"></path>
                <path d="M223.154732,45.0602249 C224.725456,45.0602249 225.991598,44.5168284 226.953561,43.4296036 C227.91472,42.3423787 228.395702,40.9195266 228.395702,39.1593195 L228.395702,32.6372663 C228.395702,30.8774911 227.91472,29.4533432 226.953561,28.3669822 C225.991598,27.2797574 224.725456,26.735929 223.154732,26.735929 L218.848,26.735929 C217.276874,26.735929 216.009928,27.2797574 215.04917,28.3669822 C214.087208,29.4533432 213.606628,30.8774911 213.606628,32.6372663 L213.606628,39.1593195 C213.606628,40.9195266 214.087208,42.3423787 215.04917,43.4296036 C216.009928,44.5168284 217.276874,45.0602249 218.848,45.0602249 L223.154732,45.0602249 Z M213.179893,48.4959763 C211.540859,47.6294793 210.267886,46.4131006 209.360571,44.8468402 C208.453256,43.2810118 208,41.4629231 208,39.392142 L208,32.4040118 C208,30.3340947 208.453256,28.5160059 209.360571,26.9497456 C210.267886,25.3843491 211.540859,24.1675385 213.179893,23.3001775 C214.818524,22.4336805 216.707893,22 218.848,22 L223.154732,22 C225.294035,22 227.183404,22.4336805 228.822437,23.3001775 C230.460667,24.1675385 231.73364,25.3843491 232.641759,26.9497456 C233.548672,28.5160059 234.002732,30.3340947 234.002732,32.4040118 L234.002732,39.392142 C234.002732,41.4629231 233.548672,43.2810118 232.641759,44.8468402 C231.73364,46.4131006 230.460667,47.6294793 228.822437,48.4959763 C227.183404,49.3637692 225.294035,49.7965858 223.154732,49.7965858 L218.848,49.7965858 C216.707893,49.7965858 214.818524,49.3637692 213.179893,48.4959763 Z" id="Fill-18" fill="#111214"></path>
                <path d="M218.600211,28.3535917 C217.231604,28.3535917 216.166775,28.8045503 215.346655,29.7323846 C214.514883,30.6723136 214.111051,31.8865325 214.111051,33.4458817 L214.111051,39.9679349 C214.111051,41.5268521 214.514883,42.741071 215.346655,43.681 C216.166775,44.6092663 217.231604,45.0602249 218.600211,45.0602249 L222.906542,45.0602249 C224.275149,45.0602249 225.339175,44.6088343 226.160098,43.681 C226.991468,42.741071 227.3953,41.5268521 227.3953,39.9679349 L227.3953,33.4458817 C227.3953,31.8865325 226.991468,30.6723136 226.160098,29.7328166 C225.339175,28.8049822 224.275149,28.3535917 222.906542,28.3535917 L218.600211,28.3535917 Z M222.906542,46.6774556 L218.600211,46.6774556 C216.821745,46.6774556 215.360317,46.044645 214.256109,44.7954379 C213.161143,43.5583254 212.606226,41.9337515 212.606226,39.9679349 L212.606226,33.4458817 C212.606226,31.4792012 213.161947,29.8550592 214.256109,28.6179467 C215.360317,27.3696036 216.821745,26.735929 218.600211,26.735929 L222.906542,26.735929 C224.684204,26.735929 226.146034,27.3691716 227.250644,28.6179467 C228.345208,29.8554911 228.900527,31.4792012 228.900527,33.4458817 L228.900527,39.9679349 C228.900527,41.9333195 228.345208,43.5578935 227.250644,44.7958698 C226.146034,46.044645 224.684204,46.6774556 222.906542,46.6774556 Z M218.600211,23.6176627 C216.586679,23.6176627 214.790935,24.0271538 213.264411,24.8344734 C211.761194,25.6296982 210.579434,26.7575266 209.75168,28.1855621 C208.923926,29.6140296 208.504825,31.3051243 208.504825,33.2126272 L208.504825,40.2007574 C208.504825,42.1091243 208.923926,43.8002189 209.75168,45.2278225 C210.579032,46.6567219 211.760792,47.7841183 213.264411,48.5789112 L213.264813,48.5793432 C214.790131,49.3870947 216.585072,49.7961538 218.600211,49.7961538 L222.906542,49.7961538 C224.920878,49.7961538 226.716622,49.3870947 228.242743,48.5793432 C229.745157,47.7841183 230.927319,46.6567219 231.755073,45.2278225 C232.582425,43.799787 233.00233,42.1082604 233.00233,40.2007574 L233.00233,33.2126272 C233.00233,31.3059882 232.582425,29.6140296 231.755073,28.1855621 C230.927319,26.7575266 229.744354,25.6296982 228.242342,24.8344734 C226.715015,24.0271538 224.91927,23.6176627 222.906542,23.6176627 L218.600211,23.6176627 Z M222.906542,51.4138166 L218.600211,51.4138166 C216.352417,51.4138166 214.334464,50.9481716 212.600199,50.0307041 C210.840217,49.1002781 209.452322,47.7720237 208.474286,46.0830888 C207.496251,44.3950178 207,42.4158107 207,40.2007574 L207,33.2126272 C207,30.9980059 207.496251,29.0192308 208.474286,27.3307278 C209.452724,25.6417929 210.84102,24.3139704 212.600199,23.3835444 C214.33567,22.465645 216.354024,22 218.600211,22 L222.906542,22 C225.151524,22 227.170681,22.465645 228.906956,23.3831124 C230.664929,24.3139704 232.052823,25.6417929 233.032065,27.3302959 C234.010502,29.0196627 234.507155,30.9988698 234.507155,33.2126272 L234.507155,40.2007574 C234.507155,42.4153787 234.010502,44.3941538 233.032466,46.0830888 C232.053225,47.7720237 230.665331,49.0998462 228.906956,50.0302722 C227.172288,50.9481716 225.153533,51.4138166 222.906542,51.4138166 Z" id="Fill-19" fill="#111214"></path>
                <path d="M218.740045,28.4412781 C217.432515,28.4412781 216.41269,28.8753905 215.622707,29.7691006 C214.793346,30.7064379 214.39072,31.9232485 214.39072,33.4899408 L214.39072,40.0119941 C214.39072,41.5782544 214.793346,42.795497 215.622305,43.7324024 C216.41269,44.6261124 217.432515,45.0606568 218.740045,45.0606568 L223.046778,45.0606568 C224.353504,45.0606568 225.37333,44.6261124 226.164116,43.7324024 C226.992674,42.795497 227.395702,41.5782544 227.395702,40.0119941 L227.395702,33.4899408 C227.395702,31.9232485 226.992674,30.7064379 226.164116,29.7695325 C225.37333,28.8753905 224.353504,28.4412781 223.046778,28.4412781 L218.740045,28.4412781 Z M223.046778,46.765574 L218.740045,46.765574 C216.900904,46.765574 215.393266,46.1150533 214.259324,44.8321538 C213.16275,43.5920178 212.606226,41.9704675 212.606226,40.0119941 L212.606226,33.4899408 C212.606226,31.5310355 213.16275,29.9086213 214.259725,28.6693491 C215.393266,27.3868817 216.900904,26.7363609 218.740045,26.7363609 L223.046778,26.7363609 C224.884713,26.7363609 226.391949,27.3864497 227.526696,28.6693491 C228.623269,29.9090533 229.179793,31.5310355 229.179793,33.4899408 L229.179793,40.0119941 C229.179793,41.9700355 228.623269,43.5920178 227.526696,44.8325858 C226.391949,46.1154852 224.884713,46.765574 223.046778,46.765574 Z M218.740045,23.7049172 C216.763481,23.7049172 215.00149,24.1066331 213.504299,24.8988343 C212.021976,25.6828284 210.854281,26.7985621 210.033357,28.2153669 C209.204398,29.6451302 208.784091,31.3414083 208.784091,33.2566864 L208.784091,40.2448166 C208.784091,42.1609586 209.204398,43.8572367 210.032956,45.286568 C210.854281,46.7029408 212.021976,47.8186746 213.504299,48.6031006 L213.504299,48.6035325 C215.000284,49.3953018 216.761874,49.7970178 218.740045,49.7970178 L223.046778,49.7970178 C225.024146,49.7970178 226.785735,49.3953018 228.282524,48.6031006 C229.764043,47.8186746 230.932141,46.7029408 231.753868,45.2861361 C232.582024,43.8559408 233.00233,42.1592308 233.00233,40.2448166 L233.00233,33.2566864 C233.00233,31.3431361 232.582024,29.646426 231.753466,28.2149349 C230.931739,26.7985621 229.763641,25.6828284 228.282122,24.8984024 C226.784128,24.1066331 225.02294,23.7049172 223.046778,23.7049172 L218.740045,23.7049172 Z M223.046778,51.501503 L218.740045,51.501503 C216.456087,51.501503 214.403578,51.0285148 212.639979,50.0942012 C210.859504,49.1525444 209.457546,47.8130592 208.472277,46.1124615 C207.495045,44.4274142 207,42.4533905 207,40.2448166 L207,33.2566864 C207,31.0494083 207.495045,29.0749527 208.472277,27.3894734 C209.457948,25.6888757 210.859906,24.3489586 212.639979,23.4068698 C214.405587,22.4734201 216.457694,22 218.740045,22 L223.046778,22 C225.328325,22 227.380834,22.4734201 229.14604,23.4068698 C230.925712,24.3489586 232.327268,25.6888757 233.313742,27.3890414 C234.291376,29.0766805 234.786421,31.0507041 234.786421,33.2566864 L234.786421,40.2448166 C234.786421,42.4516627 234.291376,44.4256864 233.314144,46.1124615 C232.32767,47.8134911 230.925712,49.1529763 229.146442,50.0946331 C227.382843,51.0285148 225.329933,51.501503 223.046778,51.501503 Z" id="Fill-20" fill="#111214"></path>
                <path d="M219.492659,29.0585089 C218.386843,29.0585089 217.569938,29.4006154 216.920995,30.1349349 C216.231468,30.9146095 215.895946,31.9491361 215.895946,33.2985562 L215.895946,39.8206095 C215.895946,41.1695976 216.230664,42.2045562 216.920192,42.9837988 C217.569938,43.7185503 218.387245,44.0606568 219.492659,44.0606568 L223.798989,44.0606568 C224.904001,44.0606568 225.72171,43.7185503 226.371456,42.9837988 C227.060984,42.2041243 227.396104,41.1691657 227.396104,39.8206095 L227.396104,33.2985562 C227.396104,31.95 227.060984,30.9150414 226.371456,30.1353669 C225.72171,29.4010473 224.904001,29.0585089 223.798989,29.0585089 L219.492659,29.0585089 Z M223.798989,45.6778876 L219.492659,45.6778876 C217.988637,45.6778876 216.756248,45.1461538 215.829646,44.0982367 C214.861655,43.0041006 214.39072,41.604574 214.39072,39.8206095 L214.39072,33.2985562 C214.39072,31.5141598 214.861655,30.1146331 215.830851,29.020497 C216.756248,27.9725799 217.988637,27.4412781 219.492659,27.4412781 L223.798989,27.4412781 C225.301805,27.4412781 226.533793,27.9725799 227.461601,29.020929 C228.429993,30.115497 228.900928,31.5150237 228.900928,33.2985562 L228.900928,39.8206095 C228.900928,41.604142 228.429993,43.0032367 227.461601,44.0982367 C226.533793,45.1461538 225.301805,45.6778876 223.798989,45.6778876 Z M219.492659,27.3535917 C217.867689,27.3535917 216.544086,27.9194497 215.558415,29.0351834 C214.597658,30.1193846 214.111453,31.5538994 214.111453,33.2985562 L214.111453,39.8206095 C214.111453,41.5644024 214.597658,42.9984852 215.55721,44.0831183 C216.543684,45.199284 217.867689,45.765574 219.492659,45.765574 L223.798989,45.765574 C225.423156,45.765574 226.746759,45.199284 227.734036,44.0839822 C228.693588,42.9993491 229.179793,41.5648343 229.179793,39.8206095 L229.179793,33.2985562 C229.179793,31.5538994 228.693588,30.1193846 227.734036,29.0351834 C226.747562,27.9194497 225.423959,27.3535917 223.798989,27.3535917 L219.492659,27.3535917 Z M223.798989,47.3828047 L219.492659,47.3828047 C217.438944,47.3828047 215.748076,46.6476213 214.466262,45.1975562 C213.232667,43.8023491 212.606628,41.9928994 212.606628,39.8206095 L212.606628,33.2985562 C212.606628,31.1245385 213.232667,29.3150888 214.467468,27.9203136 C215.748076,26.4711124 217.438944,25.7363609 219.492659,25.7363609 L223.798989,25.7363609 C225.8519,25.7363609 227.543171,26.4711124 228.82418,27.9207456 C230.058579,29.3155207 230.684216,31.1249704 230.684216,33.2985562 L230.684216,39.8206095 C230.684216,41.9937633 230.058579,43.803213 228.82418,45.1984201 C227.542367,46.6480533 225.8519,47.3828047 223.798989,47.3828047 Z M219.492659,24.3221479 C217.632221,24.3221479 215.982338,24.6962189 214.58922,25.4331302 C213.234676,26.1493077 212.169847,27.1648284 211.424868,28.4511834 C210.67105,29.7513609 210.288916,31.3037988 210.288916,33.0653018 L210.288916,40.053432 C210.288916,41.8153669 210.67105,43.3682367 211.424467,44.6675503 C212.169847,45.9539053 213.234676,46.969426 214.58922,47.6860355 C215.981133,48.4229467 217.631015,48.7965858 219.492659,48.7965858 L223.798989,48.7965858 C225.660633,48.7965858 227.310917,48.4229467 228.702428,47.6860355 C230.05657,46.969426 231.121801,45.9534734 231.867583,44.6671183 C232.621,43.3669408 233.002732,41.8149349 233.002732,40.053432 L233.002732,33.0653018 C233.002732,31.3046627 232.621,29.7522249 231.867181,28.4511834 C231.120997,27.1648284 230.056168,26.1488757 228.702026,25.4326982 C227.308908,24.695787 225.659025,24.3221479 223.798989,24.3221479 L219.492659,24.3221479 Z M223.798989,50.4142485 L219.492659,50.4142485 C217.398762,50.4142485 215.525466,49.9848876 213.924606,49.1378284 C212.314503,48.2851538 211.043137,47.0696391 210.147073,45.5228166 C209.242973,43.9626036 208.784091,42.1229172 208.784091,40.053432 L208.784091,33.0653018 C208.784091,30.9966805 209.242973,29.1561302 210.147475,27.5959172 C211.043137,26.0490947 212.314503,24.8331479 213.924606,23.9817692 C215.526671,23.1342781 217.399968,22.7049172 219.492659,22.7049172 L223.798989,22.7049172 C225.89168,22.7049172 227.764575,23.1342781 229.366641,23.9809053 C230.976341,24.8331479 232.246904,26.0490947 233.143771,27.5959172 C234.048675,29.157426 234.507556,30.9975444 234.507556,33.0653018 L234.507556,40.053432 C234.507556,42.1216213 234.048675,43.9613077 233.144575,45.5223846 C232.248109,47.0696391 230.977145,48.2851538 229.367042,49.1373964 C227.766986,49.9844556 225.893288,50.4142485 223.798989,50.4142485 Z M219.492659,22.6176627 C217.326434,22.6176627 215.38523,23.0630059 213.724096,23.9415976 C212.073008,24.8154379 210.773916,26.055142 209.863386,27.6257219 C208.961697,29.1816154 208.504825,31.0122308 208.504825,33.0653018 L208.504825,40.053432 C208.504825,42.1073669 208.961697,43.9379822 209.863386,45.4934438 C210.773514,47.0644556 212.072204,48.3037278 213.724096,49.177568 C215.383221,50.0561598 217.324425,50.501503 219.492659,50.501503 L223.798989,50.501503 C225.966821,50.501503 227.907222,50.0561598 229.56715,49.177568 C231.218238,48.3037278 232.517732,47.0640237 233.428663,45.4930118 C234.330353,43.9375503 234.786823,42.1069349 234.786823,40.053432 L234.786823,33.0653018 C234.786823,31.0126627 234.329549,29.1820473 233.42786,27.6252899 C232.516928,26.0547101 231.217033,24.8150059 229.566346,23.9411657 C227.905614,23.0630059 225.964812,22.6176627 223.798989,22.6176627 L219.492659,22.6176627 Z M223.798989,52.1191657 L219.492659,52.1191657 C217.09177,52.1191657 214.927152,51.6176686 213.059884,50.628929 C211.152433,49.6198876 209.647608,48.1797574 208.585993,46.3487101 C207.534022,44.5327811 207,42.4149172 207,40.053432 L207,33.0653018 C207,30.7051124 207.533218,28.5872485 208.585993,26.7704556 C209.647608,24.9398402 211.153236,23.4997101 213.059884,22.4902367 C214.929563,21.501497 217.094181,21 219.492659,21 L223.798989,21 C226.197467,21 228.361281,21.501497 230.230961,22.4898047 C232.13801,23.4992781 233.643236,24.9389763 234.704851,26.7695917 C235.757626,28.5876805 236.291648,30.7055444 236.291648,33.0653018 L236.291648,40.053432 C236.291648,42.4140533 235.758028,44.5319172 234.705655,46.3487101 C233.64404,48.1797574 232.138412,49.6198876 230.231362,50.628929 C228.364094,51.6176686 226.199476,52.1191657 223.798989,52.1191657 Z" id="Fill-21" fill="#111214"></path>
            </g>
        </g>
    </g>
</svg>